<svg xmlns="http://www.w3.org/2000/svg" viewBox="0 0 96 96" role="img" aria-labelledby="logo-title logo-desc">
  <title id="logo-title">Cardo monochrome mark</title>
  <desc id="logo-desc">A one-color package tile mark for Cardo.</desc>

  <g fill="none" stroke="currentColor" stroke-width="3.2" stroke-linecap="round" stroke-linejoin="round">
    <rect x="8" y="8" width="80" height="80" rx="24"/>
    <path d="M66 56V40a4 4 0 0 0-2-3.46l-14-8a4 4 0 0 0-4 0l-14 8A4 4 0 0 0 30 40v16a4 4 0 0 0 2 3.46l14 8a4 4 0 0 0 4 0l14-8A4 4 0 0 0 66 56z"/>
    <polyline points="30.54 37.92 48 48.02 65.46 37.92"/>
    <line x1="48" y1="68.16" x2="48" y2="48"/>
  </g>
</svg>
