<svg xmlns="http://www.w3.org/2000/svg" viewBox="0 0 240 196" role="img" aria-labelledby="logo-title logo-desc">
  <title id="logo-title">KhaosBox stacked logo</title>
  <desc id="logo-desc">A vertical KhaosBox logo with the package-tile symbol over the wordmark.</desc>

  <g transform="translate(72 10)">
    <rect x="8" y="8" width="80" height="80" rx="24" fill="#171C24"/>
    <rect x="8.75" y="8.75" width="78.5" height="78.5" rx="23.25" fill="none" stroke="#FFFFFF" stroke-opacity=".14" stroke-width="1.5"/>

    <g transform="translate(24 24)" fill="none" stroke="#F8FBFF" stroke-width="3.2" stroke-linecap="round" stroke-linejoin="round">
      <path d="M42 32V16a4 4 0 0 0-2-3.46l-14-8a4 4 0 0 0-4 0l-14 8A4 4 0 0 0 6 16v16a4 4 0 0 0 2 3.46l14 8a4 4 0 0 0 4 0l14-8A4 4 0 0 0 42 32z"/>
      <polyline points="6.54 13.92 24 24.02 41.46 13.92"/>
      <line x1="24" y1="44.16" x2="24" y2="24"/>
    </g>
  </g>

  <text
    x="120"
    y="172"
    text-anchor="middle"
    fill="#171C24"
    font-family="&quot;Segoe UI Variable Display&quot;,&quot;Segoe UI&quot;,Arial,sans-serif"
    font-size="38"
    font-weight="700"
    letter-spacing="-1.1"
  >
    KhaosBox
  </text>
</svg>
