<svg xmlns="http://www.w3.org/2000/svg" viewBox="0 0 96 96" role="img" aria-labelledby="logo-title logo-desc">
  <title id="logo-title">KhaosBox mark</title>
  <desc id="logo-desc">A package icon inside a rounded square tile for KhaosBox.</desc>

  <rect x="8" y="8" width="80" height="80" rx="24" fill="#171C24"/>
  <rect x="8.75" y="8.75" width="78.5" height="78.5" rx="23.25" fill="none" stroke="#FFFFFF" stroke-opacity=".14" stroke-width="1.5"/>

  <g transform="translate(24 24)" fill="none" stroke="#F8FBFF" stroke-width="3.2" stroke-linecap="round" stroke-linejoin="round">
    <path d="M42 32V16a4 4 0 0 0-2-3.46l-14-8a4 4 0 0 0-4 0l-14 8A4 4 0 0 0 6 16v16a4 4 0 0 0 2 3.46l14 8a4 4 0 0 0 4 0l14-8A4 4 0 0 0 42 32z"/>
    <polyline points="6.54 13.92 24 24.02 41.46 13.92"/>
    <line x1="24" y1="44.16" x2="24" y2="24"/>
  </g>
</svg>
